<mxfile host="app.diagrams.net" agent="Mozilla/5.0 (X11; Linux x86_64; rv:136.0) Gecko/20100101 Firefox/136.0" version="26.2.8">
  <diagram name="Page-1" id="3_6a5_2kQlZxPaKQZJdn">
    <mxGraphModel dx="868" dy="528" grid="1" gridSize="10" guides="1" tooltips="1" connect="1" arrows="1" fold="1" page="1" pageScale="1" pageWidth="850" pageHeight="1100" math="0" shadow="0">
      <root>
        <mxCell id="0" />
        <mxCell id="1" parent="0" />
        <mxCell id="KQ-_H6xCF4qAzGktlUSp-8" style="edgeStyle=orthogonalEdgeStyle;rounded=0;orthogonalLoop=1;jettySize=auto;html=1;entryX=0.5;entryY=0;entryDx=0;entryDy=0;" edge="1" parent="1" source="KQ-_H6xCF4qAzGktlUSp-16">
          <mxGeometry relative="1" as="geometry">
            <mxPoint x="260" y="110" as="targetPoint" />
          </mxGeometry>
        </mxCell>
        <mxCell id="KQ-_H6xCF4qAzGktlUSp-1" value="WAKE" style="rounded=0;whiteSpace=wrap;html=1;" vertex="1" parent="1">
          <mxGeometry x="200" width="120" height="60" as="geometry" />
        </mxCell>
        <mxCell id="KQ-_H6xCF4qAzGktlUSp-29" style="edgeStyle=orthogonalEdgeStyle;rounded=0;orthogonalLoop=1;jettySize=auto;html=1;entryX=1;entryY=0.5;entryDx=0;entryDy=0;" edge="1" parent="1" source="KQ-_H6xCF4qAzGktlUSp-6" target="KQ-_H6xCF4qAzGktlUSp-17">
          <mxGeometry relative="1" as="geometry">
            <Array as="points">
              <mxPoint x="570" y="410" />
            </Array>
          </mxGeometry>
        </mxCell>
        <mxCell id="KQ-_H6xCF4qAzGktlUSp-6" value="Move" style="rounded=0;whiteSpace=wrap;html=1;dashed=1;" vertex="1" parent="1">
          <mxGeometry x="530" y="320" width="80" height="40" as="geometry" />
        </mxCell>
        <mxCell id="KQ-_H6xCF4qAzGktlUSp-54" style="edgeStyle=orthogonalEdgeStyle;rounded=0;orthogonalLoop=1;jettySize=auto;html=1;entryX=0.5;entryY=0;entryDx=0;entryDy=0;" edge="1" parent="1" source="KQ-_H6xCF4qAzGktlUSp-12" target="KQ-_H6xCF4qAzGktlUSp-53">
          <mxGeometry relative="1" as="geometry" />
        </mxCell>
        <mxCell id="KQ-_H6xCF4qAzGktlUSp-55" value="No Errors" style="edgeLabel;html=1;align=center;verticalAlign=middle;resizable=0;points=[];" vertex="1" connectable="0" parent="KQ-_H6xCF4qAzGktlUSp-54">
          <mxGeometry x="-0.6462" y="-2" relative="1" as="geometry">
            <mxPoint x="-17" y="2" as="offset" />
          </mxGeometry>
        </mxCell>
        <mxCell id="KQ-_H6xCF4qAzGktlUSp-57" style="edgeStyle=orthogonalEdgeStyle;rounded=0;orthogonalLoop=1;jettySize=auto;html=1;entryX=0.5;entryY=0;entryDx=0;entryDy=0;" edge="1" parent="1" source="KQ-_H6xCF4qAzGktlUSp-12" target="KQ-_H6xCF4qAzGktlUSp-13">
          <mxGeometry relative="1" as="geometry" />
        </mxCell>
        <mxCell id="KQ-_H6xCF4qAzGktlUSp-58" value="Short-Circuit" style="edgeLabel;html=1;align=center;verticalAlign=middle;resizable=0;points=[];" vertex="1" connectable="0" parent="KQ-_H6xCF4qAzGktlUSp-57">
          <mxGeometry x="-0.0286" y="-2" relative="1" as="geometry">
            <mxPoint as="offset" />
          </mxGeometry>
        </mxCell>
        <mxCell id="KQ-_H6xCF4qAzGktlUSp-12" value="Go Home" style="rhombus;whiteSpace=wrap;html=1;" vertex="1" parent="1">
          <mxGeometry x="220" y="230" width="80" height="80" as="geometry" />
        </mxCell>
        <mxCell id="KQ-_H6xCF4qAzGktlUSp-60" style="edgeStyle=orthogonalEdgeStyle;rounded=0;orthogonalLoop=1;jettySize=auto;html=1;entryX=0.5;entryY=0;entryDx=0;entryDy=0;" edge="1" parent="1" source="KQ-_H6xCF4qAzGktlUSp-13" target="KQ-_H6xCF4qAzGktlUSp-14">
          <mxGeometry relative="1" as="geometry" />
        </mxCell>
        <mxCell id="KQ-_H6xCF4qAzGktlUSp-63" value="Short-Circuit" style="edgeLabel;html=1;align=center;verticalAlign=middle;resizable=0;points=[];" vertex="1" connectable="0" parent="KQ-_H6xCF4qAzGktlUSp-60">
          <mxGeometry x="-0.0508" y="-2" relative="1" as="geometry">
            <mxPoint as="offset" />
          </mxGeometry>
        </mxCell>
        <mxCell id="KQ-_H6xCF4qAzGktlUSp-61" style="edgeStyle=orthogonalEdgeStyle;rounded=0;orthogonalLoop=1;jettySize=auto;html=1;entryX=0.5;entryY=0;entryDx=0;entryDy=0;" edge="1" parent="1" source="KQ-_H6xCF4qAzGktlUSp-13" target="KQ-_H6xCF4qAzGktlUSp-59">
          <mxGeometry relative="1" as="geometry" />
        </mxCell>
        <mxCell id="KQ-_H6xCF4qAzGktlUSp-62" value="No Errors" style="edgeLabel;html=1;align=center;verticalAlign=middle;resizable=0;points=[];" vertex="1" connectable="0" parent="KQ-_H6xCF4qAzGktlUSp-61">
          <mxGeometry x="0.549" y="-4" relative="1" as="geometry">
            <mxPoint x="4" as="offset" />
          </mxGeometry>
        </mxCell>
        <mxCell id="KQ-_H6xCF4qAzGktlUSp-13" value="Go Bed" style="rhombus;whiteSpace=wrap;html=1;" vertex="1" parent="1">
          <mxGeometry x="220" y="370" width="80" height="80" as="geometry" />
        </mxCell>
        <mxCell id="KQ-_H6xCF4qAzGktlUSp-14" value="SLEEP" style="rounded=0;whiteSpace=wrap;html=1;" vertex="1" parent="1">
          <mxGeometry x="200" y="540" width="120" height="60" as="geometry" />
        </mxCell>
        <mxCell id="KQ-_H6xCF4qAzGktlUSp-25" style="edgeStyle=orthogonalEdgeStyle;rounded=0;orthogonalLoop=1;jettySize=auto;html=1;" edge="1" parent="1" source="KQ-_H6xCF4qAzGktlUSp-15" target="KQ-_H6xCF4qAzGktlUSp-6">
          <mxGeometry relative="1" as="geometry" />
        </mxCell>
        <mxCell id="KQ-_H6xCF4qAzGktlUSp-26" value="!= Current Room" style="edgeLabel;html=1;align=center;verticalAlign=middle;resizable=0;points=[];" vertex="1" connectable="0" parent="KQ-_H6xCF4qAzGktlUSp-25">
          <mxGeometry x="-0.0249" relative="1" as="geometry">
            <mxPoint x="29" y="-10" as="offset" />
          </mxGeometry>
        </mxCell>
        <mxCell id="KQ-_H6xCF4qAzGktlUSp-27" style="edgeStyle=orthogonalEdgeStyle;rounded=0;orthogonalLoop=1;jettySize=auto;html=1;entryX=0.5;entryY=0;entryDx=0;entryDy=0;" edge="1" parent="1" source="KQ-_H6xCF4qAzGktlUSp-15" target="KQ-_H6xCF4qAzGktlUSp-17">
          <mxGeometry relative="1" as="geometry" />
        </mxCell>
        <mxCell id="KQ-_H6xCF4qAzGktlUSp-28" value="0" style="edgeLabel;html=1;align=center;verticalAlign=middle;resizable=0;points=[];" vertex="1" connectable="0" parent="KQ-_H6xCF4qAzGktlUSp-27">
          <mxGeometry x="-0.3619" y="1" relative="1" as="geometry">
            <mxPoint x="-1" y="11" as="offset" />
          </mxGeometry>
        </mxCell>
        <mxCell id="KQ-_H6xCF4qAzGktlUSp-15" value="Decide Room" style="rhombus;whiteSpace=wrap;html=1;" vertex="1" parent="1">
          <mxGeometry x="385" y="230" width="80" height="80" as="geometry" />
        </mxCell>
        <mxCell id="KQ-_H6xCF4qAzGktlUSp-31" style="edgeStyle=orthogonalEdgeStyle;rounded=0;orthogonalLoop=1;jettySize=auto;html=1;entryX=0.5;entryY=0;entryDx=0;entryDy=0;" edge="1" parent="1" source="KQ-_H6xCF4qAzGktlUSp-17" target="KQ-_H6xCF4qAzGktlUSp-37">
          <mxGeometry relative="1" as="geometry">
            <mxPoint x="425" y="510" as="targetPoint" />
          </mxGeometry>
        </mxCell>
        <mxCell id="KQ-_H6xCF4qAzGktlUSp-46" value="None" style="edgeLabel;html=1;align=center;verticalAlign=middle;resizable=0;points=[];" vertex="1" connectable="0" parent="KQ-_H6xCF4qAzGktlUSp-31">
          <mxGeometry x="0.0776" y="2" relative="1" as="geometry">
            <mxPoint x="-2" y="-8" as="offset" />
          </mxGeometry>
        </mxCell>
        <mxCell id="KQ-_H6xCF4qAzGktlUSp-32" style="edgeStyle=orthogonalEdgeStyle;rounded=0;orthogonalLoop=1;jettySize=auto;html=1;entryX=0.5;entryY=0;entryDx=0;entryDy=0;exitX=0.5;exitY=1;exitDx=0;exitDy=0;" edge="1" parent="1" source="KQ-_H6xCF4qAzGktlUSp-17" target="KQ-_H6xCF4qAzGktlUSp-30">
          <mxGeometry relative="1" as="geometry">
            <Array as="points">
              <mxPoint x="570" y="450" />
            </Array>
          </mxGeometry>
        </mxCell>
        <mxCell id="KQ-_H6xCF4qAzGktlUSp-33" value="!= None" style="edgeLabel;html=1;align=center;verticalAlign=middle;resizable=0;points=[];" vertex="1" connectable="0" parent="KQ-_H6xCF4qAzGktlUSp-32">
          <mxGeometry x="0.4182" y="-2" relative="1" as="geometry">
            <mxPoint x="28" y="-12" as="offset" />
          </mxGeometry>
        </mxCell>
        <mxCell id="KQ-_H6xCF4qAzGktlUSp-17" value="Decide Object" style="rhombus;whiteSpace=wrap;html=1;" vertex="1" parent="1">
          <mxGeometry x="385" y="370" width="80" height="80" as="geometry" />
        </mxCell>
        <mxCell id="KQ-_H6xCF4qAzGktlUSp-35" style="edgeStyle=orthogonalEdgeStyle;rounded=0;orthogonalLoop=1;jettySize=auto;html=1;entryX=0.5;entryY=0;entryDx=0;entryDy=0;exitX=0.5;exitY=1;exitDx=0;exitDy=0;" edge="1" parent="1" source="KQ-_H6xCF4qAzGktlUSp-42">
          <mxGeometry relative="1" as="geometry">
            <mxPoint x="425" y="590" as="sourcePoint" />
            <mxPoint x="425" y="720" as="targetPoint" />
          </mxGeometry>
        </mxCell>
        <mxCell id="KQ-_H6xCF4qAzGktlUSp-19" value="" style="edgeStyle=orthogonalEdgeStyle;rounded=0;orthogonalLoop=1;jettySize=auto;html=1;entryX=0.5;entryY=0;entryDx=0;entryDy=0;" edge="1" parent="1" source="KQ-_H6xCF4qAzGktlUSp-1" target="KQ-_H6xCF4qAzGktlUSp-16">
          <mxGeometry relative="1" as="geometry">
            <mxPoint x="260" y="60" as="sourcePoint" />
            <mxPoint x="260" y="110" as="targetPoint" />
          </mxGeometry>
        </mxCell>
        <mxCell id="KQ-_H6xCF4qAzGktlUSp-21" style="edgeStyle=orthogonalEdgeStyle;rounded=0;orthogonalLoop=1;jettySize=auto;html=1;entryX=0.5;entryY=0;entryDx=0;entryDy=0;" edge="1" parent="1" source="KQ-_H6xCF4qAzGktlUSp-16" target="KQ-_H6xCF4qAzGktlUSp-15">
          <mxGeometry relative="1" as="geometry" />
        </mxCell>
        <mxCell id="KQ-_H6xCF4qAzGktlUSp-22" value="No" style="edgeLabel;html=1;align=center;verticalAlign=middle;resizable=0;points=[];" vertex="1" connectable="0" parent="KQ-_H6xCF4qAzGktlUSp-21">
          <mxGeometry x="0.0153" y="-5" relative="1" as="geometry">
            <mxPoint x="16" y="-15" as="offset" />
          </mxGeometry>
        </mxCell>
        <mxCell id="KQ-_H6xCF4qAzGktlUSp-23" style="edgeStyle=orthogonalEdgeStyle;rounded=0;orthogonalLoop=1;jettySize=auto;html=1;entryX=0.5;entryY=0;entryDx=0;entryDy=0;" edge="1" parent="1" source="KQ-_H6xCF4qAzGktlUSp-16" target="KQ-_H6xCF4qAzGktlUSp-12">
          <mxGeometry relative="1" as="geometry" />
        </mxCell>
        <mxCell id="KQ-_H6xCF4qAzGktlUSp-24" value="Si" style="edgeLabel;html=1;align=center;verticalAlign=middle;resizable=0;points=[];" vertex="1" connectable="0" parent="KQ-_H6xCF4qAzGktlUSp-23">
          <mxGeometry x="-0.3771" y="-2" relative="1" as="geometry">
            <mxPoint as="offset" />
          </mxGeometry>
        </mxCell>
        <mxCell id="KQ-_H6xCF4qAzGktlUSp-16" value="If All ActionBares Complete " style="rhombus;whiteSpace=wrap;html=1;" vertex="1" parent="1">
          <mxGeometry x="220" y="100" width="80" height="80" as="geometry" />
        </mxCell>
        <mxCell id="KQ-_H6xCF4qAzGktlUSp-39" style="edgeStyle=orthogonalEdgeStyle;rounded=0;orthogonalLoop=1;jettySize=auto;html=1;entryX=0;entryY=0.5;entryDx=0;entryDy=0;exitX=1;exitY=0.5;exitDx=0;exitDy=0;" edge="1" parent="1" source="KQ-_H6xCF4qAzGktlUSp-40" target="KQ-_H6xCF4qAzGktlUSp-38">
          <mxGeometry relative="1" as="geometry">
            <mxPoint x="465" y="760" as="sourcePoint" />
          </mxGeometry>
        </mxCell>
        <mxCell id="KQ-_H6xCF4qAzGktlUSp-49" value="1" style="edgeLabel;html=1;align=center;verticalAlign=middle;resizable=0;points=[];" vertex="1" connectable="0" parent="KQ-_H6xCF4qAzGktlUSp-39">
          <mxGeometry x="-0.3079" y="6" relative="1" as="geometry">
            <mxPoint x="4" y="6" as="offset" />
          </mxGeometry>
        </mxCell>
        <mxCell id="KQ-_H6xCF4qAzGktlUSp-34" style="edgeStyle=orthogonalEdgeStyle;rounded=0;orthogonalLoop=1;jettySize=auto;html=1;entryX=1;entryY=0.5;entryDx=0;entryDy=0;" edge="1" parent="1" source="KQ-_H6xCF4qAzGktlUSp-30" target="KQ-_H6xCF4qAzGktlUSp-37">
          <mxGeometry relative="1" as="geometry">
            <mxPoint x="465" y="550" as="targetPoint" />
            <Array as="points">
              <mxPoint x="570" y="550" />
            </Array>
          </mxGeometry>
        </mxCell>
        <mxCell id="KQ-_H6xCF4qAzGktlUSp-30" value="Move" style="rounded=0;whiteSpace=wrap;html=1;dashed=1;" vertex="1" parent="1">
          <mxGeometry x="530" y="470" width="80" height="40" as="geometry" />
        </mxCell>
        <mxCell id="KQ-_H6xCF4qAzGktlUSp-37" value="Decompose Current Vague Task" style="rounded=0;whiteSpace=wrap;html=1;" vertex="1" parent="1">
          <mxGeometry x="365" y="520" width="120" height="60" as="geometry" />
        </mxCell>
        <mxCell id="KQ-_H6xCF4qAzGktlUSp-38" value="Fallback To Vague Task" style="rounded=0;whiteSpace=wrap;html=1;" vertex="1" parent="1">
          <mxGeometry x="510" y="810" width="120" height="60" as="geometry" />
        </mxCell>
        <mxCell id="KQ-_H6xCF4qAzGktlUSp-51" style="edgeStyle=orthogonalEdgeStyle;rounded=0;orthogonalLoop=1;jettySize=auto;html=1;entryX=1;entryY=0.5;entryDx=0;entryDy=0;" edge="1" parent="1" source="KQ-_H6xCF4qAzGktlUSp-40" target="KQ-_H6xCF4qAzGktlUSp-41">
          <mxGeometry relative="1" as="geometry">
            <mxPoint x="350" y="840" as="targetPoint" />
          </mxGeometry>
        </mxCell>
        <mxCell id="KQ-_H6xCF4qAzGktlUSp-52" value="0" style="edgeLabel;html=1;align=center;verticalAlign=middle;resizable=0;points=[];" vertex="1" connectable="0" parent="KQ-_H6xCF4qAzGktlUSp-51">
          <mxGeometry x="-0.9273" y="2" relative="1" as="geometry">
            <mxPoint x="-12" y="-2" as="offset" />
          </mxGeometry>
        </mxCell>
        <mxCell id="KQ-_H6xCF4qAzGktlUSp-40" value="Subtask List Empty" style="rhombus;whiteSpace=wrap;html=1;" vertex="1" parent="1">
          <mxGeometry x="385" y="800" width="80" height="80" as="geometry" />
        </mxCell>
        <mxCell id="KQ-_H6xCF4qAzGktlUSp-65" style="edgeStyle=orthogonalEdgeStyle;rounded=0;orthogonalLoop=1;jettySize=auto;html=1;entryX=0;entryY=0.5;entryDx=0;entryDy=0;" edge="1" parent="1" source="KQ-_H6xCF4qAzGktlUSp-41" target="KQ-_H6xCF4qAzGktlUSp-42">
          <mxGeometry relative="1" as="geometry">
            <Array as="points">
              <mxPoint x="280" y="690" />
            </Array>
          </mxGeometry>
        </mxCell>
        <mxCell id="KQ-_H6xCF4qAzGktlUSp-41" value="Enact Subtask" style="rounded=0;whiteSpace=wrap;html=1;" vertex="1" parent="1">
          <mxGeometry x="220" y="810" width="120" height="60" as="geometry" />
        </mxCell>
        <mxCell id="KQ-_H6xCF4qAzGktlUSp-43" value="" style="edgeStyle=orthogonalEdgeStyle;rounded=0;orthogonalLoop=1;jettySize=auto;html=1;entryX=0.5;entryY=0;entryDx=0;entryDy=0;exitX=0.5;exitY=1;exitDx=0;exitDy=0;" edge="1" parent="1" source="KQ-_H6xCF4qAzGktlUSp-37" target="KQ-_H6xCF4qAzGktlUSp-42">
          <mxGeometry relative="1" as="geometry">
            <mxPoint x="425" y="580" as="sourcePoint" />
            <mxPoint x="425" y="720" as="targetPoint" />
          </mxGeometry>
        </mxCell>
        <mxCell id="KQ-_H6xCF4qAzGktlUSp-44" style="edgeStyle=orthogonalEdgeStyle;rounded=0;orthogonalLoop=1;jettySize=auto;html=1;entryX=0.5;entryY=0;entryDx=0;entryDy=0;" edge="1" parent="1" source="KQ-_H6xCF4qAzGktlUSp-42" target="KQ-_H6xCF4qAzGktlUSp-40">
          <mxGeometry relative="1" as="geometry" />
        </mxCell>
        <mxCell id="KQ-_H6xCF4qAzGktlUSp-45" value="Neigh" style="edgeLabel;html=1;align=center;verticalAlign=middle;resizable=0;points=[];" vertex="1" connectable="0" parent="KQ-_H6xCF4qAzGktlUSp-44">
          <mxGeometry x="-0.6163" y="5" relative="1" as="geometry">
            <mxPoint x="-5" y="16" as="offset" />
          </mxGeometry>
        </mxCell>
        <mxCell id="KQ-_H6xCF4qAzGktlUSp-47" style="edgeStyle=orthogonalEdgeStyle;rounded=0;orthogonalLoop=1;jettySize=auto;html=1;" edge="1" parent="1" source="KQ-_H6xCF4qAzGktlUSp-42">
          <mxGeometry relative="1" as="geometry">
            <mxPoint x="425" y="140" as="targetPoint" />
            <Array as="points">
              <mxPoint x="630" y="690" />
              <mxPoint x="630" y="140" />
            </Array>
          </mxGeometry>
        </mxCell>
        <mxCell id="KQ-_H6xCF4qAzGktlUSp-48" value="Yuh" style="edgeLabel;html=1;align=center;verticalAlign=middle;resizable=0;points=[];" vertex="1" connectable="0" parent="KQ-_H6xCF4qAzGktlUSp-47">
          <mxGeometry x="-0.8683" y="1" relative="1" as="geometry">
            <mxPoint as="offset" />
          </mxGeometry>
        </mxCell>
        <mxCell id="KQ-_H6xCF4qAzGktlUSp-42" value="Current Vague Task Done" style="rhombus;whiteSpace=wrap;html=1;" vertex="1" parent="1">
          <mxGeometry x="385" y="650" width="80" height="80" as="geometry" />
        </mxCell>
        <mxCell id="KQ-_H6xCF4qAzGktlUSp-56" style="edgeStyle=orthogonalEdgeStyle;rounded=0;orthogonalLoop=1;jettySize=auto;html=1;entryX=0;entryY=0.5;entryDx=0;entryDy=0;" edge="1" parent="1" source="KQ-_H6xCF4qAzGktlUSp-53" target="KQ-_H6xCF4qAzGktlUSp-13">
          <mxGeometry relative="1" as="geometry">
            <Array as="points">
              <mxPoint x="140" y="410" />
            </Array>
          </mxGeometry>
        </mxCell>
        <mxCell id="KQ-_H6xCF4qAzGktlUSp-53" value="Move" style="rounded=0;whiteSpace=wrap;html=1;dashed=1;" vertex="1" parent="1">
          <mxGeometry x="100" y="320" width="80" height="40" as="geometry" />
        </mxCell>
        <mxCell id="KQ-_H6xCF4qAzGktlUSp-64" style="edgeStyle=orthogonalEdgeStyle;rounded=0;orthogonalLoop=1;jettySize=auto;html=1;entryX=0;entryY=0.5;entryDx=0;entryDy=0;" edge="1" parent="1" source="KQ-_H6xCF4qAzGktlUSp-59" target="KQ-_H6xCF4qAzGktlUSp-14">
          <mxGeometry relative="1" as="geometry">
            <Array as="points">
              <mxPoint x="140" y="570" />
            </Array>
          </mxGeometry>
        </mxCell>
        <mxCell id="KQ-_H6xCF4qAzGktlUSp-59" value="Move" style="rounded=0;whiteSpace=wrap;html=1;dashed=1;" vertex="1" parent="1">
          <mxGeometry x="100" y="470" width="80" height="40" as="geometry" />
        </mxCell>
      </root>
    </mxGraphModel>
  </diagram>
</mxfile>
